<svg xmlns="http://www.w3.org/2000/svg" viewBox="0 0 48 48" x="0px" y="0px"><path d="M24,27h1.1c.13,.64,.38,1.23,.73,1.75l-.78,.78c-.39,.39-.39,1.02,0,1.41,.2,.2,.45,.29,.71,.29s.51-.1,.71-.29l.78-.78c.52,.35,1.12,.6,1.75,.73v1.1c0,.55,.45,1,1,1s1-.45,1-1v-1.1c.64-.13,1.23-.38,1.75-.73l.78,.78c.2,.2,.45,.29,.71,.29s.51-.1,.71-.29c.39-.39,.39-1.02,0-1.41l-.78-.78c.35-.52,.6-1.12,.73-1.75h1.1c.55,0,1-.45,1-1s-.45-1-1-1h-1.1c-.13-.64-.38-1.23-.73-1.75l.78-.78c.39-.39,.39-1.02,0-1.41-.2-.2-.45-.29-.71-.29s-.51,.1-.71,.29l-.78,.78c-.52-.35-1.12-.6-1.75-.73v-1.1c0-.55-.45-1-1-1s-1,.45-1,1v1.1c-.64,.13-1.23,.38-1.75,.73l-.78-.78c-.2-.2-.45-.29-.71-.29s-.51,.1-.71,.29c-.39,.39-.39,1.02,0,1.41l.78,.78c-.35,.52-.6,1.12-.73,1.75h-1.1c-.55,0-1,.45-1,1s.45,1,1,1Zm5.99-4.02c1.65,0,3,1.35,3,3s-1.35,3-3,3-3-1.35-3-3,1.35-3,3-3Z"></path><path d="M16,23h6c.55,0,1-.45,1-1s-.45-1-1-1h-6c-.55,0-1,.45-1,1s.45,1,1,1Z"></path><circle cx="12" cy="22" r="1"></circle><path d="M38,8H10c-2.21,0-4,1.79-4,4v24c0,2.21,1.79,4,4,4h28c2.21,0,4-1.79,4-4V12c0-2.21-1.79-4-4-4Zm2,8H12c-.55,0-1,.45-1,1s.45,1,1,1h28v18c0,1.1-.9,2-2,2H10c-1.1,0-2-.9-2-2V12c0-1.1,.9-2,2-2h28c1.1,0,2,.9,2,2v4Z"></path><path d="M36,12h-12c-.55,0-1,.45-1,1s.45,1,1,1h12c.55,0,1-.45,1-1s-.45-1-1-1Z"></path><circle cx="12" cy="13" r="1"></circle><circle cx="16" cy="13" r="1"></circle><circle cx="20" cy="13" r="1"></circle><path d="M16,27h4c.55,0,1-.45,1-1s-.45-1-1-1h-4c-.55,0-1,.45-1,1s.45,1,1,1Z"></path><circle cx="12" cy="26" r="1"></circle><path d="M16,31h6c.55,0,1-.45,1-1s-.45-1-1-1h-6c-.55,0-1,.45-1,1s.45,1,1,1Z"></path><circle cx="12" cy="30" r="1"></circle><path d="M16,35h11c.55,0,1-.45,1-1s-.45-1-1-1h-11c-.55,0-1,.45-1,1s.45,1,1,1Z"></path><circle cx="12" cy="34" r="1"></circle></svg>